<svg width="32" height="32" viewBox="0 0 32 32" fill="none" xmlns="http://www.w3.org/2000/svg">
<g id="bxl:twitter">
<path id="Vector" d="M26.1773 10.6629C26.1947 10.8962 26.1947 11.1282 26.1947 11.3602C26.1947 18.4602 20.7907 26.6416 10.9147 26.6416C7.872 26.6416 5.04534 25.7602 2.66667 24.2296C3.09867 24.2789 3.51467 24.2962 3.96401 24.2962C6.38133 24.3021 8.7302 23.4937 10.632 22.0016C9.51123 21.9813 8.42477 21.6115 7.52432 20.9439C6.62387 20.2762 5.95438 19.3441 5.60934 18.2776C5.94134 18.3269 6.27467 18.3602 6.62401 18.3602C7.10534 18.3602 7.58934 18.2936 8.03867 18.1776C6.82235 17.932 5.72864 17.2727 4.9435 16.3118C4.15836 15.3509 3.73026 14.1478 3.73201 12.9069V12.8402C4.44801 13.2389 5.27867 13.4882 6.15867 13.5216C5.42146 13.0317 4.81697 12.3669 4.39912 11.5866C3.98128 10.8063 3.76309 9.93469 3.76401 9.04955C3.76401 8.05222 4.02934 7.13755 4.49467 6.34022C5.84419 8.00025 7.52734 9.3583 9.43512 10.3264C11.3429 11.2946 13.4328 11.8512 15.5693 11.9602C15.4867 11.5602 15.436 11.1456 15.436 10.7296C15.4357 10.0242 15.5743 9.32563 15.8441 8.67387C16.1139 8.02212 16.5095 7.42992 17.0083 6.93114C17.507 6.43236 18.0992 6.03677 18.751 5.76699C19.4028 5.49721 20.1013 5.35854 20.8067 5.35889C22.3533 5.35889 23.7493 6.00689 24.7307 7.05489C25.933 6.82238 27.0861 6.38345 28.1387 5.75755C27.7379 6.99864 26.8984 8.05103 25.7773 8.71755C26.8437 8.59593 27.8859 8.31549 28.8693 7.88555C28.1348 8.95635 27.2247 9.89535 26.1773 10.6629Z" fill="#F7F6F2"/>
</g>
</svg>
