<svg width="22" height="24" viewBox="0 0 22 24" fill="none" xmlns="http://www.w3.org/2000/svg">
<g id="google 2">
<path id="Vector" d="M21.1672 9.91355L12.3568 9.91309C11.9677 9.91309 11.6523 10.2634 11.6523 10.6957V13.823C11.6523 14.2552 11.9677 14.6056 12.3567 14.6056H17.3182C16.7749 16.1722 15.7609 17.4842 14.4672 18.3178L16.5828 22.387C19.9764 20.2062 21.9828 16.3799 21.9828 12.0965C21.9828 11.4866 21.9423 11.0506 21.8614 10.5597C21.7999 10.1867 21.5085 9.91355 21.1672 9.91355Z" fill="#167EE6"/>
<path id="Vector_2" d="M11.1818 19.3044C8.75376 19.3044 6.63408 17.8303 5.49564 15.6491L1.8335 17.9945C3.69714 21.5833 7.18834 24 11.1818 24C13.1409 24 14.9894 23.414 16.5819 22.3926V22.387L14.4663 18.3178C13.4986 18.9414 12.3787 19.3044 11.1818 19.3044Z" fill="#12B347"/>
<path id="Vector_3" d="M16.5831 22.3925V22.387L14.4675 18.3177C13.4998 18.9413 12.3801 19.3043 11.1831 19.3043V24C13.1422 24 14.9908 23.4139 16.5831 22.3925Z" fill="#0F993E"/>
<path id="Vector_4" d="M4.60941 12.0001C4.60941 10.6703 4.93603 9.42619 5.49717 8.35102L1.83502 6.00568C0.910732 7.76944 0.383301 9.81779 0.383301 12.0001C0.383301 14.1824 0.910732 16.2308 1.83502 17.9945L5.49717 15.6492C4.93603 14.574 4.60941 13.3299 4.60941 12.0001Z" fill="#FFD500"/>
<path id="Vector_5" d="M11.1818 4.69566C12.7652 4.69566 14.2196 5.32078 15.3555 6.36061C15.6358 6.61711 16.0431 6.59859 16.2998 6.31336L18.294 4.09758C18.5853 3.77395 18.5646 3.24422 18.2534 2.94431C16.3501 1.10967 13.8737 0 11.1818 0C7.18834 0 3.69714 2.41673 1.8335 6.00558L5.49564 8.35092C6.63408 6.16969 8.75376 4.69566 11.1818 4.69566Z" fill="#FF4B26"/>
<path id="Vector_6" d="M15.3568 6.36061C15.6371 6.61711 16.0444 6.5986 16.3011 6.31336L18.2953 4.09758C18.5865 3.77395 18.5658 3.24422 18.2547 2.94431C16.3514 1.10963 13.875 0 11.1831 0V4.69566C12.7664 4.69566 14.2208 5.32078 15.3568 6.36061Z" fill="#D93F21"/>
</g>
</svg>
