<svg width="80" height="80" viewBox="0 0 80 80" fill="none" xmlns="http://www.w3.org/2000/svg">
<g id="ion:arrow-back-circle">
<path id="Vector" d="M7.5 40C7.5 57.9484 22.0516 72.5 40 72.5C57.9484 72.5 72.5 57.9484 72.5 40C72.5 22.0516 57.9484 7.5 40 7.5C22.0516 7.5 7.5 22.0516 7.5 40ZM40.7266 25.725C40.9597 25.9562 41.145 26.2311 41.2719 26.534C41.3988 26.8368 41.4647 27.1617 41.466 27.4901C41.4673 27.8184 41.4039 28.1438 41.2795 28.4477C41.155 28.7515 40.9719 29.0279 40.7406 29.2609L32.5656 37.5H53.4375C54.1005 37.5 54.7364 37.7634 55.2053 38.2322C55.6741 38.7011 55.9375 39.337 55.9375 40C55.9375 40.663 55.6741 41.2989 55.2053 41.7678C54.7364 42.2366 54.1005 42.5 53.4375 42.5H32.5656L40.7406 50.7391C40.9719 50.9724 41.1549 51.2489 41.2793 51.553C41.4036 51.857 41.4669 52.1826 41.4655 52.511C41.464 52.8395 41.3979 53.1645 41.2708 53.4674C41.1438 53.7704 40.9583 54.0453 40.725 54.2766C40.4917 54.5078 40.2151 54.6908 39.9111 54.8152C39.6071 54.9396 39.2815 55.0028 38.953 55.0014C38.6245 54.9999 38.2995 54.9338 37.9966 54.8068C37.6937 54.6797 37.4187 54.4942 37.1875 54.2609L24.7828 41.7609C24.3181 41.2927 24.0574 40.6597 24.0574 40C24.0574 39.3403 24.3181 38.7073 24.7828 38.2391L37.1875 25.7391C37.4188 25.5055 37.6939 25.3198 37.997 25.1926C38.3001 25.0655 38.6254 24.9993 38.9541 24.998C39.2828 24.9967 39.6086 25.0603 39.9127 25.185C40.2169 25.3097 40.4934 25.4932 40.7266 25.725Z" fill="#314359"/>
</g>
</svg>
