<svg width="80" height="80" viewBox="0 0 80 80" fill="none" xmlns="http://www.w3.org/2000/svg">
<g id="ion:arrow-back-circle">
<path id="Vector" d="M72.5 40C72.5 57.9484 57.9484 72.5 40 72.5C22.0516 72.5 7.5 57.9484 7.5 40C7.5 22.0516 22.0516 7.5 40 7.5C57.9484 7.5 72.5 22.0516 72.5 40ZM39.2734 25.725C39.0403 25.9562 38.855 26.2311 38.7281 26.534C38.6012 26.8368 38.5353 27.1617 38.534 27.4901C38.5327 27.8184 38.5961 28.1438 38.7205 28.4477C38.845 28.7515 39.0281 29.0279 39.2594 29.2609L47.4344 37.5H26.5625C25.8995 37.5 25.2636 37.7634 24.7947 38.2322C24.3259 38.7011 24.0625 39.337 24.0625 40C24.0625 40.663 24.3259 41.2989 24.7947 41.7678C25.2636 42.2366 25.8995 42.5 26.5625 42.5H47.4344L39.2594 50.7391C39.0281 50.9724 38.8451 51.2489 38.7207 51.553C38.5964 51.857 38.5331 52.1826 38.5345 52.511C38.536 52.8395 38.6021 53.1645 38.7292 53.4674C38.8562 53.7704 39.0417 54.0453 39.275 54.2766C39.5083 54.5078 39.7849 54.6908 40.0889 54.8152C40.3929 54.9396 40.7185 55.0028 41.047 55.0014C41.3755 54.9999 41.7005 54.9338 42.0034 54.8068C42.3063 54.6797 42.5813 54.4942 42.8125 54.2609L55.2172 41.7609C55.6819 41.2927 55.9426 40.6597 55.9426 40C55.9426 39.3403 55.6819 38.7073 55.2172 38.2391L42.8125 25.7391C42.5812 25.5055 42.3061 25.3198 42.003 25.1926C41.6999 25.0655 41.3746 24.9993 41.0459 24.998C40.7172 24.9967 40.3914 25.0603 40.0873 25.185C39.7831 25.3097 39.5066 25.4932 39.2734 25.725Z" fill="#314359"/>
</g>
</svg>
